<svg viewBox="0 0 180 204" fill="none"
  xmlns="http://www.w3.org/2000/svg">
  <path fill-rule="evenodd" clip-rule="evenodd" d="M9.94475 64C15.4371 64 19.8895 68.4772 19.8895 74V194C19.8895 199.523 15.4371 204 9.94475 204C4.45242 204 0 199.523 0 194V74C0 68.4772 4.45242 64 9.94475 64Z" fill="black"/>
  <path fill-rule="evenodd" clip-rule="evenodd" d="M170.055 64C175.548 64 180 68.4772 180 74V194C180 199.523 175.548 204 170.055 204C164.563 204 160.11 199.523 160.11 194V74C160.11 68.4772 164.563 64 170.055 64Z" fill="black"/>
  <path fill-rule="evenodd" clip-rule="evenodd" d="M0 194C0 188.477 4.45242 184 9.94475 184H169.061C174.553 184 179.006 188.477 179.006 194C179.006 199.523 174.553 204 169.061 204H9.94475C4.45242 204 0 199.523 0 194Z" fill="black"/>
  <path fill-rule="evenodd" clip-rule="evenodd" d="M0 71C0 65.4772 4.45242 61 9.94475 61H39.779V81H9.94475C4.45242 81 0 76.5229 0 71Z" fill="black"/>
  <path fill-rule="evenodd" clip-rule="evenodd" d="M140.221 61H170.055C175.548 61 180 65.4772 180 71C180 76.5229 175.548 81 170.055 81H140.221V61Z" fill="black"/>
  <path fill-rule="evenodd" clip-rule="evenodd" d="M96.4321 2.82721C100.372 6.67545 100.463 13.0064 96.6359 16.9679L62.8238 51.9679C58.9968 55.9293 52.7008 56.021 48.7612 52.1728C44.8217 48.3246 44.7305 41.9936 48.5574 38.0322L82.3696 3.03215C86.1966 -0.929275 92.4926 -1.02103 96.4321 2.82721Z" fill="black"/>
  <path fill-rule="evenodd" clip-rule="evenodd" d="M82.3724 3.02922C86.201 -0.93063 92.4971 -1.0198 96.435 2.83006L132.236 37.8301C136.174 41.6799 136.263 48.0109 132.434 51.9708C128.606 55.9306 122.31 56.0198 118.372 52.17L82.5705 17.17C78.6325 13.3201 78.5438 6.98908 82.3724 3.02922Z" fill="black"/>
  <path fill-rule="evenodd" clip-rule="evenodd" d="M89.5028 6.63387e-06C94.9951 6.63387e-06 99.4475 4.47716 99.4475 10V110C99.4475 115.523 94.9951 120 89.5028 120C84.0104 120 79.558 115.523 79.558 110V10C79.558 4.47716 84.0104 6.63387e-06 89.5028 6.63387e-06Z" fill="black"/>
</svg>
